#define _0_width 5
#define _0_height 7
static unsigned char _0_bits[] = {
   0x0e, 0x11, 0x11, 0x11, 0x11, 0x11, 0x0e };
