#define _2_width 4
#define _2_height 7
static unsigned char _2_bits[] = {
   0x07, 0x09, 0x08, 0x04, 0x02, 0x01, 0x0f };
