#define _3_width 5
#define _3_height 7
static unsigned char _3_bits[] = {
   0x1e, 0x11, 0x10, 0x0c, 0x10, 0x11, 0x1e };
