#define _4_width 6
#define _4_height 8
static unsigned char _4_bits[] = {
   0x18, 0x14, 0x12, 0x11, 0x3f, 0x10, 0x10, 0x10 };
