#define _8_width 5
#define _8_height 7
static unsigned char _8_bits[] = {
   0x0e, 0x11, 0x11, 0x0e, 0x11, 0x11, 0x0e };
